<svg width="300" height="300" viewBox="0 0 300 300" fill="none" xmlns="http://www.w3.org/2000/svg">
<g clip-path="url(#clip0_6_11)">
<path fill-rule="evenodd" clip-rule="evenodd" d="M164.77 113.08L189.44 97.85L164.5 40.36C164.91 42.2 165.32 44 165.75 45.74L172.62 73.14C176.63 89.13 181.33 99.22 164.77 113.08ZM160.67 40.16C146.07 114.98 131.48 189.8 116.88 264.61C105.78 321.48 -16.69 304.82 1.92 250.01C9.33 228.19 42.13 223.49 69.02 221.09C44.29 230.45 39.14 239.07 36.84 251.77C34.54 264.48 45.03 274.91 59.18 275.5C73.33 276.09 96.44 267.88 107.57 254.73C121.42 238.36 122.46 223.18 118.37 208.88C113.82 195.07 107.52 185 100.62 172.42C145.73 143.9 149.27 75.57 160.67 40.16ZM190.47 100.22L210.54 146.48C200.12 128.99 190.46 114.35 171.26 112.09L190.47 100.22Z" fill="#FFF"/>
<path fill-rule="evenodd" clip-rule="evenodd" d="M68.45 43.21C13.55 60.92 -7.49 104.61 13.17 145.39C-26.15 89.52 33.79 10.73 135.26 1.29C190.37 -3.84 242.97 6.14 276.75 34.22C315.85 66.72 306.65 126.15 241.39 167.7C196.65 196.2 139.03 208.43 86.12 212.29C358.05 141.46 274.39 -23.2 68.45 43.21Z" fill="#FFF"/>
</g>
<defs>
<clipPath id="clip0_6_11">
<rect width="300" height="300" fill="white"/>
</clipPath>
</defs>
</svg>
