<svg width="500" height="500" viewBox="0 0 500 500" fill="none" xmlns="http://www.w3.org/2000/svg">
<g clip-path="url(#clip0_6_4)">
<path fill-rule="evenodd" clip-rule="evenodd" d="M264.77 213.08L289.44 197.85L264.5 140.36C264.91 142.2 265.32 144 265.75 145.75L272.62 173.14C276.63 189.13 281.33 199.23 264.77 213.08ZM260.67 140.17C246.07 214.98 231.48 289.8 216.88 364.61C205.78 421.48 83.31 404.82 101.92 350.01C109.33 328.19 142.13 323.49 169.02 321.09C144.29 330.45 139.14 339.07 136.84 351.77C134.54 364.48 145.03 374.91 159.18 375.5C173.33 376.09 196.44 367.88 207.57 354.73C221.42 338.36 222.46 323.18 218.37 308.88C213.82 295.07 207.52 285 200.62 272.42C245.73 243.9 249.27 175.57 260.67 140.17ZM290.47 200.22L310.54 246.48C300.12 228.99 290.46 214.36 271.26 212.09L290.47 200.22Z" fill="#FFF"/>
<path fill-rule="evenodd" clip-rule="evenodd" d="M168.45 143.21C113.55 160.92 92.51 204.61 113.17 245.39C73.85 189.52 133.79 110.73 235.26 101.29C290.37 96.17 342.97 106.14 376.75 134.22C415.85 166.72 406.65 226.15 341.39 267.7C296.65 296.2 239.03 308.43 186.12 312.29C458.05 241.46 374.39 76.8 168.45 143.21Z" fill="#FFF"/>
</g>
<defs>
<clipPath id="clip0_6_4">
<rect width="500" height="500" fill="white"/>
</clipPath>
</defs>
</svg>
